<svg width="219" height="296" viewBox="0 0 219 296" fill="none" xmlns="http://www.w3.org/2000/svg">
<g clip-path="url(#clip0_3_4)">
<path fill-rule="evenodd" clip-rule="evenodd" d="M148.427 0H182.13C182.532 0 182.866 0.235978 182.866 0.524304V2.2274C182.866 2.51573 182.532 2.75088 182.13 2.75088H148.427C148.023 2.75088 147.69 2.51573 147.69 2.2274V0.524304C147.69 0.235978 148.023 0 148.427 0Z" fill="black"/>
<path fill-rule="evenodd" clip-rule="evenodd" d="M0 43.2228V31.592C0 31.3036 0.331466 31.0677 0.736464 31.0677H2.44731C2.85231 31.0677 3.18377 31.3036 3.18377 31.592V43.2228C3.18377 43.5112 2.85231 43.7471 2.44731 43.7471H0.736464C0.331466 43.7471 0 43.5112 0 43.2228Z" fill="black"/>
<path fill-rule="evenodd" clip-rule="evenodd" d="M0.856192 70.8098L0 65.2414V54.2571C0 53.9687 0.331466 53.7328 0.736464 53.7328H2.44731C2.85346 53.7328 3.18377 53.9687 3.18377 54.2571V70.81C3.18377 71.0984 2.85231 71.3335 2.44731 71.3335H1.5915C1.18766 71.3335 0.90008 71.0956 0.856192 70.8098Z" fill="black"/>
<path fill-rule="evenodd" clip-rule="evenodd" d="M0.856192 87.7306L0 93.2981V104.283C0 104.571 0.331466 104.807 0.736464 104.807H2.44731C2.85346 104.807 3.18377 104.571 3.18377 104.283V87.7303C3.18377 87.442 2.85231 87.206 2.44731 87.206H1.5915C1.18766 87.2063 0.90008 87.4439 0.856192 87.7306Z" fill="black"/>
<path fill-rule="evenodd" clip-rule="evenodd" d="M39.8553 1.74228H181.056C201.926 1.74228 219 13.8983 219 28.7558V268.987C219 283.845 201.926 296 181.056 296H39.8553C18.9864 296 1.91142 283.845 1.91142 268.987V28.7561C1.9118 13.8983 18.9864 1.74228 39.8553 1.74228Z" fill="black"/>
<path fill-rule="evenodd" clip-rule="evenodd" d="M40.293 11.063H180.619C195.096 11.063 206.939 19.4957 206.939 29.8014V270.142C206.939 280.448 195.096 288.881 180.619 288.881H40.293C25.8159 288.881 13.972 280.448 13.972 270.142V29.8014C13.972 19.4957 25.8159 11.063 40.293 11.063Z" fill="black"/>
<path fill-rule="evenodd" clip-rule="evenodd" d="M110.414 254.931C121.354 254.931 130.226 261.247 130.226 269.035C130.226 276.824 121.354 283.138 110.414 283.138C99.4746 283.138 90.6016 276.824 90.6016 269.035C90.6016 261.247 99.4746 254.931 110.414 254.931Z" fill="white"/>
<path fill-rule="evenodd" clip-rule="evenodd" d="M126.156 29.3903H94.672C92.4807 29.3903 90.6859 30.667 90.6859 32.2273C90.6859 33.7889 92.4803 35.0656 94.672 35.0656H126.156C128.349 35.0656 130.14 33.7889 130.14 32.2273C130.14 30.6672 128.349 29.3903 126.156 29.3903Z" fill="white"/>
<path fill-rule="evenodd" clip-rule="evenodd" d="M21.5072 53.5889H199.405C201.069 53.5889 202.432 54.5588 202.432 55.7447V247.497C202.432 248.682 201.069 249.652 199.405 249.652H21.5072C19.8426 249.652 18.4801 248.682 18.4801 247.497V55.745C18.4801 54.5588 19.8426 53.5889 21.5072 53.5889Z" fill="white"/>
<path fill-rule="evenodd" clip-rule="evenodd" d="M149.16 115.565C143.923 111.957 139.364 108.47 129.734 108.109C121.965 107.868 118.417 111.235 111.153 111.356C104.396 111.476 104.903 107.627 90.8823 108.71C78.7204 109.672 68.0781 118.331 68.9227 130.477C69.7673 143.585 82.6048 161.745 94.5985 161.745C103.044 161.623 105.072 158.739 111.999 158.739C120.611 158.739 122.64 162.346 129.396 161.623C141.053 160.422 152.032 147.313 152.032 143.104C145.614 140.699 139.194 136.61 138.351 129.755C137.674 122.901 143.587 118.571 149.16 115.565Z" fill="black"/>
<path fill-rule="evenodd" clip-rule="evenodd" d="M108.788 109.071C107.944 104.261 112.505 93.7975 128.552 92.235C130.411 100.292 121.119 109.552 108.788 109.071Z" fill="black"/>
<path fill-rule="evenodd" clip-rule="evenodd" d="M171.986 188.316C172.191 186.617 173.621 184.093 177.167 184.093C180.986 184.093 181.873 186.763 181.873 188.316H171.986ZM189.304 192.83C189.441 192.296 189.576 191.326 189.576 190.209C189.576 185.014 186.303 179.724 177.646 179.724C168.375 179.724 164.08 185.599 164.08 190.937C164.08 197.537 169.327 201.664 178.395 201.664C182.009 201.664 185.349 201.227 188.077 200.306L186.985 195.888C184.736 196.519 182.487 196.811 179.622 196.811C175.738 196.811 172.327 195.499 172.056 192.78L189.304 192.83ZM135.17 201.228H143.487V189.142C143.487 188.51 143.557 187.927 143.76 187.491C144.374 186.277 145.739 185.064 148.055 185.064C151.055 185.064 152.282 186.909 152.282 189.578V201.228H160.601V188.849C160.601 182.638 156.509 179.773 150.987 179.773C146.487 179.773 143.827 181.812 142.738 183.171H142.6L142.192 180.258H134.967C135.034 182.153 135.169 184.337 135.169 186.957V201.228H135.17ZM118.194 197.004C114.715 197.004 112.739 194.335 112.739 190.743C112.739 187.637 114.307 184.481 118.262 184.481C122.01 184.481 123.58 187.637 123.58 190.694C123.58 194.48 121.535 197.004 118.262 197.004H118.194V197.004ZM118.126 201.665C125.286 201.665 132.238 198.17 132.238 190.548C132.238 184.191 126.716 179.773 118.604 179.773C109.944 179.773 104.217 184.093 104.217 190.889C104.217 197.635 110.217 201.665 118.058 201.665H118.126ZM75.3099 201.228H83.6269V188.801C83.6269 188.316 83.6959 187.733 83.8999 187.394C84.5136 186.18 85.8771 185.064 88.0584 185.064C91.1948 185.064 92.3544 186.957 92.3544 189.675V201.227H100.74V188.995C100.74 182.637 96.6492 179.773 91.3315 179.773C89.8316 179.773 88.2636 180.113 87.0355 180.598C85.6731 181.131 84.5825 181.86 83.6959 182.782H83.6269V170.794H75.3099V201.228ZM53.2194 177.298C53.8331 177.2 54.9922 177.104 56.628 177.104C60.8551 177.104 63.173 178.658 63.173 181.327C63.173 184.239 60.4459 185.986 56.0144 185.986C54.7871 185.986 53.9008 185.938 53.2194 185.84V177.298ZM44.9016 201.228H53.2194V190.841C53.9694 190.985 54.9922 191.033 56.0829 191.033C60.9914 191.033 65.2862 190.015 68.0823 187.976C70.3313 186.375 71.4231 183.996 71.4231 181.131C71.4231 178.27 69.9233 175.89 67.5364 174.483C65.0821 172.88 61.4006 172.105 56.2196 172.105C51.1059 172.105 47.4921 172.395 44.9016 172.736V201.228ZM35.9701 177.541C38.9025 177.541 40.7423 175.988 40.7423 174.046C40.6745 172.056 38.9028 170.6 36.039 170.6C33.1751 170.6 31.3345 172.056 31.3345 174.046C31.3345 175.988 33.1751 177.541 35.9701 177.541ZM40.1971 201.228V180.258H31.8115V201.228H40.1971Z" fill="black"/>
</g>
<defs>
<clipPath id="clip0_3_4">
<rect width="219" height="296" fill="white"/>
</clipPath>
</defs>
</svg>
